<svg xmlns="http://www.w3.org/2000/svg" width="600" height="400" viewBox="0 0 600 400">
  <defs>
    <linearGradient id="bg6" x1="0%" y1="0%" x2="100%" y2="100%">
      <stop offset="0%" style="stop-color:#ede7f6"/>
      <stop offset="100%" style="stop-color:#d1c4e9"/>
    </linearGradient>
  </defs>
  <rect width="600" height="400" fill="url(#bg6)"/>
  <!-- 测绘无人机 - 精密 -->
  <rect x="260" y="185" width="80" height="35" rx="8" fill="#4527a0"/>
  <rect x="280" y="175" width="40" height="12" rx="4" fill="#512da8"/>
  <!-- 测绘相机 -->
  <rect x="285" y="220" width="30" height="20" rx="3" fill="#311b92"/>
  <circle cx="300" cy="230" r="6" fill="#7c4dff"/>
  <!-- 四臂 -->
  <line x1="275" y1="195" x2="190" y2="165" stroke="#512da8" stroke-width="5"/>
  <line x1="325" y1="195" x2="410" y2="165" stroke="#512da8" stroke-width="5"/>
  <line x1="275" y1="215" x2="190" y2="245" stroke="#512da8" stroke-width="5"/>
  <line x1="325" y1="215" x2="410" y2="245" stroke="#512da8" stroke-width="5"/>
  <!-- 旋翼 -->
  <ellipse cx="190" cy="163" rx="42" ry="7" fill="#7e57c2" opacity="0.6"/>
  <ellipse cx="410" cy="163" rx="42" ry="7" fill="#7e57c2" opacity="0.6"/>
  <ellipse cx="190" cy="247" rx="42" ry="7" fill="#7e57c2" opacity="0.6"/>
  <ellipse cx="410" cy="247" rx="42" ry="7" fill="#7e57c2" opacity="0.6"/>
  <!-- GPS天线 -->
  <line x1="300" y1="175" x2="300" y2="155" stroke="#4527a0" stroke-width="2"/>
  <circle cx="300" cy="150" r="4" fill="#b388ff"/>
  <!-- 起落架 -->
  <line x1="270" y1="250" x2="255" y2="290" stroke="#4527a0" stroke-width="3"/>
  <line x1="330" y1="250" x2="345" y2="290" stroke="#4527a0" stroke-width="3"/>
  <line x1="245" y1="290" x2="355" y2="290" stroke="#4527a0" stroke-width="3"/>
</svg>
