<svg xmlns="http://www.w3.org/2000/svg" width="1920" height="700" viewBox="0 0 1920 700">
  <defs>
    <linearGradient id="sky3" x1="0%" y1="0%" x2="0%" y2="100%">
      <stop offset="0%" style="stop-color:#4A7A8F;stop-opacity:1" />
      <stop offset="50%" style="stop-color:#5B8FA3;stop-opacity:1" />
      <stop offset="100%" style="stop-color:#7AA5B5;stop-opacity:1" />
    </linearGradient>
    <linearGradient id="sun3" x1="0%" y1="0%" x2="0%" y2="100%">
      <stop offset="0%" style="stop-color:#FFB74D;stop-opacity:1" />
      <stop offset="100%" style="stop-color:#FF9800;stop-opacity:1" />
    </linearGradient>
  </defs>
  <rect width="1920" height="700" fill="url(#sky3)"/>
  <polygon points="0,480 250,380 500,430 750,350 1000,400 1250,330 1500,380 1750,310 1920,370 1920,700 0,700" fill="#3D6A7A" opacity="0.7"/>
  <polygon points="0,530 350,440 700,490 1050,410 1400,460 1750,390 1920,430 1920,700 0,700" fill="#2C5565"/>
  <ellipse cx="300" cy="530" rx="280" ry="30" fill="#fff" opacity="0.5"/>
  <ellipse cx="800" cy="545" rx="320" ry="35" fill="#fff" opacity="0.45"/>
  <ellipse cx="1300" cy="535" rx="260" ry="28" fill="#fff" opacity="0.5"/>
  <rect x="0" y="580" width="1920" height="120" fill="#fff" opacity="0.35"/>
  <circle cx="1500" cy="100" r="70" fill="url(#sun3)" opacity="0.6"/>
  <circle cx="1500" cy="100" r="40" fill="#FFCC80" opacity="0.8"/>
  <circle cx="1500" cy="100" r="20" fill="#FFE0B2" opacity="0.9"/>
  <g transform="translate(800, 280) scale(1.8)" fill="#1a3d52" opacity="0.85">
    <ellipse cx="0" cy="0" rx="20" ry="6"/>
    <line x1="-15" y1="-2" x2="-45" y2="-20" stroke="#1a3d52" stroke-width="2"/>
    <line x1="15" y1="-2" x2="45" y2="-20" stroke="#1a3d52" stroke-width="2"/>
    <line x1="-15" y1="2" x2="-45" y2="20" stroke="#1a3d52" stroke-width="2"/>
    <line x1="15" y1="2" x2="45" y2="20" stroke="#1a3d52" stroke-width="2"/>
    <line x1="-12" y1="6" x2="-15" y2="20" stroke="#1a3d52" stroke-width="1.5"/>
    <line x1="12" y1="6" x2="15" y2="20" stroke="#1a3d52" stroke-width="1.5"/>
    <line x1="-20" y1="20" x2="20" y2="20" stroke="#1a3d52" stroke-width="1.5"/>
    <ellipse cx="-45" cy="-20" rx="15" ry="3.5" fill="#1a3d52" opacity="0.4"/>
    <ellipse cx="45" cy="-20" rx="15" ry="3.5" fill="#1a3d52" opacity="0.4"/>
    <ellipse cx="-45" cy="20" rx="15" ry="3.5" fill="#1a3d52" opacity="0.4"/>
    <ellipse cx="45" cy="20" rx="15" ry="3.5" fill="#1a3d52" opacity="0.4"/>
  </g>
</svg>
